 4d 54 68 64 00 00 00 06 00 00 00 01 00 80 4d 54 72 6b 00 00 00 8c 00 ff 58 
 04 04 02 30 08 00 ff 59 02 00 00 00 90 3c 28 81 00 90 3c 00 00 90 3c 1e 81 
 00 90 3c 00 00 90 43 2d 81 00 90 43 00 00 90 43 32 81 00 90 43 00 00 90 45 
 2d 81 00 90 45 00 00 90 45 32 81 00 90 45 00 00 90 43 23 82 00 90 43 00 00 
 90 41 32 81 00 90 41 00 00 90 41 2d 81 00 90 41 00 00 90 40 32 40 90 40 00 
 40 90 40 28 40 90 40 00 40 90 3e 2d 40 90 3e 00 40 90 3e 32 40 90 3e 00 40 
 90 3c 1e 82 00 90 3c 00 00 ff 2f 00
